<?xml version="1.0" encoding="utf-8" standalone="no"?>
<!DOCTYPE svg PUBLIC "-//W3C//DTD SVG 1.1//EN"
  "http://www.w3.org/Graphics/SVG/1.1/DTD/svg11.dtd">
<svg xmlns:xlink="http://www.w3.org/1999/xlink" width="1944pt" height="432pt" viewBox="0 0 1944 432" xmlns="http://www.w3.org/2000/svg" version="1.1">
 <metadata>
  <rdf:RDF xmlns:dc="http://purl.org/dc/elements/1.1/" xmlns:cc="http://creativecommons.org/ns#" xmlns:rdf="http://www.w3.org/1999/02/22-rdf-syntax-ns#">
   <cc:Work>
    <dc:type rdf:resource="http://purl.org/dc/dcmitype/StillImage"/>
    <dc:date>2024-09-01T06:35:54.901900</dc:date>
    <dc:format>image/svg+xml</dc:format>
    <dc:creator>
     <cc:Agent>
      <dc:title>Matplotlib v3.9.2, https://matplotlib.org/</dc:title>
     </cc:Agent>
    </dc:creator>
   </cc:Work>
  </rdf:RDF>
 </metadata>
 <defs>
  <style type="text/css">*{stroke-linejoin: round; stroke-linecap: butt}</style>
 </defs>
 <g id="figure_1">
  <g id="patch_1">
   <path d="M 0 432 
L 1944 432 
L 1944 0 
L 0 0 
z
" style="fill: #ffffff"/>
  </g>
  <g id="axes_1">
   <g id="patch_2">
    <path d="M 243 384.48 
L 1749.6 384.48 
L 1749.6 51.84 
L 243 51.84 
z
" style="fill: #eaeaf2"/>
   </g>
   <g id="matplotlib.axis_1">
    <g id="xtick_1">
     <g id="line2d_1">
      <path d="M 373.503087 384.48 
L 373.503087 51.84 
" clip-path="url(#p728e509668)" style="fill: none; stroke: #ffffff; stroke-width: 0.8; stroke-linecap: round"/>
     </g>
     <g id="text_1">
      <!-- 2020-07 -->
      <g style="fill: #262626" transform="translate(336.807775 405.795625) scale(0.2 -0.2)">
       <defs>
        <path id="ArialMT-32" d="M 3222 541 
L 3222 0 
L 194 0 
Q 188 203 259 391 
Q 375 700 629 1000 
Q 884 1300 1366 1694 
Q 2113 2306 2375 2664 
Q 2638 3022 2638 3341 
Q 2638 3675 2398 3904 
Q 2159 4134 1775 4134 
Q 1369 4134 1125 3890 
Q 881 3647 878 3216 
L 300 3275 
Q 359 3922 746 4261 
Q 1134 4600 1788 4600 
Q 2447 4600 2831 4234 
Q 3216 3869 3216 3328 
Q 3216 3053 3103 2787 
Q 2991 2522 2730 2228 
Q 2469 1934 1863 1422 
Q 1356 997 1212 845 
Q 1069 694 975 541 
L 3222 541 
z
" transform="scale(0.015625)"/>
        <path id="ArialMT-30" d="M 266 2259 
Q 266 3072 433 3567 
Q 600 4063 929 4331 
Q 1259 4600 1759 4600 
Q 2128 4600 2406 4451 
Q 2684 4303 2865 4023 
Q 3047 3744 3150 3342 
Q 3253 2941 3253 2259 
Q 3253 1453 3087 958 
Q 2922 463 2592 192 
Q 2263 -78 1759 -78 
Q 1097 -78 719 397 
Q 266 969 266 2259 
z
M 844 2259 
Q 844 1131 1108 757 
Q 1372 384 1759 384 
Q 2147 384 2411 759 
Q 2675 1134 2675 2259 
Q 2675 3391 2411 3762 
Q 2147 4134 1753 4134 
Q 1366 4134 1134 3806 
Q 844 3388 844 2259 
z
" transform="scale(0.015625)"/>
        <path id="ArialMT-2d" d="M 203 1375 
L 203 1941 
L 1931 1941 
L 1931 1375 
L 203 1375 
z
" transform="scale(0.015625)"/>
        <path id="ArialMT-37" d="M 303 3981 
L 303 4522 
L 3269 4522 
L 3269 4084 
Q 2831 3619 2401 2847 
Q 1972 2075 1738 1259 
Q 1569 684 1522 0 
L 944 0 
Q 953 541 1156 1306 
Q 1359 2072 1739 2783 
Q 2119 3494 2547 3981 
L 303 3981 
z
" transform="scale(0.015625)"/>
       </defs>
       <use xlink:href="#ArialMT-32"/>
       <use xlink:href="#ArialMT-30" x="55.615234"/>
       <use xlink:href="#ArialMT-32" x="111.230469"/>
       <use xlink:href="#ArialMT-30" x="166.845703"/>
       <use xlink:href="#ArialMT-2d" x="222.460938"/>
       <use xlink:href="#ArialMT-30" x="255.761719"/>
       <use xlink:href="#ArialMT-37" x="311.376953"/>
      </g>
     </g>
    </g>
    <g id="xtick_2">
     <g id="line2d_2">
      <path d="M 532.001887 384.48 
L 532.001887 51.84 
" clip-path="url(#p728e509668)" style="fill: none; stroke: #ffffff; stroke-width: 0.8; stroke-linecap: round"/>
     </g>
     <g id="text_2">
      <!-- 2021-01 -->
      <g style="fill: #262626" transform="translate(495.306574 405.795625) scale(0.2 -0.2)">
       <defs>
        <path id="ArialMT-31" d="M 2384 0 
L 1822 0 
L 1822 3584 
Q 1619 3391 1289 3197 
Q 959 3003 697 2906 
L 697 3450 
Q 1169 3672 1522 3987 
Q 1875 4303 2022 4600 
L 2384 4600 
L 2384 0 
z
" transform="scale(0.015625)"/>
       </defs>
       <use xlink:href="#ArialMT-32"/>
       <use xlink:href="#ArialMT-30" x="55.615234"/>
       <use xlink:href="#ArialMT-32" x="111.230469"/>
       <use xlink:href="#ArialMT-31" x="166.845703"/>
       <use xlink:href="#ArialMT-2d" x="222.460938"/>
       <use xlink:href="#ArialMT-30" x="255.761719"/>
       <use xlink:href="#ArialMT-31" x="311.376953"/>
      </g>
     </g>
    </g>
    <g id="xtick_3">
     <g id="line2d_3">
      <path d="M 687.916467 384.48 
L 687.916467 51.84 
" clip-path="url(#p728e509668)" style="fill: none; stroke: #ffffff; stroke-width: 0.8; stroke-linecap: round"/>
     </g>
     <g id="text_3">
      <!-- 2021-07 -->
      <g style="fill: #262626" transform="translate(651.221154 405.795625) scale(0.2 -0.2)">
       <use xlink:href="#ArialMT-32"/>
       <use xlink:href="#ArialMT-30" x="55.615234"/>
       <use xlink:href="#ArialMT-32" x="111.230469"/>
       <use xlink:href="#ArialMT-31" x="166.845703"/>
       <use xlink:href="#ArialMT-2d" x="222.460938"/>
       <use xlink:href="#ArialMT-30" x="255.761719"/>
       <use xlink:href="#ArialMT-37" x="311.376953"/>
      </g>
     </g>
    </g>
    <g id="xtick_4">
     <g id="line2d_4">
      <path d="M 846.415266 384.48 
L 846.415266 51.84 
" clip-path="url(#p728e509668)" style="fill: none; stroke: #ffffff; stroke-width: 0.8; stroke-linecap: round"/>
     </g>
     <g id="text_4">
      <!-- 2022-01 -->
      <g style="fill: #262626" transform="translate(809.719953 405.795625) scale(0.2 -0.2)">
       <use xlink:href="#ArialMT-32"/>
       <use xlink:href="#ArialMT-30" x="55.615234"/>
       <use xlink:href="#ArialMT-32" x="111.230469"/>
       <use xlink:href="#ArialMT-32" x="166.845703"/>
       <use xlink:href="#ArialMT-2d" x="222.460938"/>
       <use xlink:href="#ArialMT-30" x="255.761719"/>
       <use xlink:href="#ArialMT-31" x="311.376953"/>
      </g>
     </g>
    </g>
    <g id="xtick_5">
     <g id="line2d_5">
      <path d="M 1002.329846 384.48 
L 1002.329846 51.84 
" clip-path="url(#p728e509668)" style="fill: none; stroke: #ffffff; stroke-width: 0.8; stroke-linecap: round"/>
     </g>
     <g id="text_5">
      <!-- 2022-07 -->
      <g style="fill: #262626" transform="translate(965.634533 405.795625) scale(0.2 -0.2)">
       <use xlink:href="#ArialMT-32"/>
       <use xlink:href="#ArialMT-30" x="55.615234"/>
       <use xlink:href="#ArialMT-32" x="111.230469"/>
       <use xlink:href="#ArialMT-32" x="166.845703"/>
       <use xlink:href="#ArialMT-2d" x="222.460938"/>
       <use xlink:href="#ArialMT-30" x="255.761719"/>
       <use xlink:href="#ArialMT-37" x="311.376953"/>
      </g>
     </g>
    </g>
    <g id="xtick_6">
     <g id="line2d_6">
      <path d="M 1160.828645 384.48 
L 1160.828645 51.84 
" clip-path="url(#p728e509668)" style="fill: none; stroke: #ffffff; stroke-width: 0.8; stroke-linecap: round"/>
     </g>
     <g id="text_6">
      <!-- 2023-01 -->
      <g style="fill: #262626" transform="translate(1124.133332 405.795625) scale(0.2 -0.2)">
       <defs>
        <path id="ArialMT-33" d="M 269 1209 
L 831 1284 
Q 928 806 1161 595 
Q 1394 384 1728 384 
Q 2125 384 2398 659 
Q 2672 934 2672 1341 
Q 2672 1728 2419 1979 
Q 2166 2231 1775 2231 
Q 1616 2231 1378 2169 
L 1441 2663 
Q 1497 2656 1531 2656 
Q 1891 2656 2178 2843 
Q 2466 3031 2466 3422 
Q 2466 3731 2256 3934 
Q 2047 4138 1716 4138 
Q 1388 4138 1169 3931 
Q 950 3725 888 3313 
L 325 3413 
Q 428 3978 793 4289 
Q 1159 4600 1703 4600 
Q 2078 4600 2393 4439 
Q 2709 4278 2876 4000 
Q 3044 3722 3044 3409 
Q 3044 3113 2884 2869 
Q 2725 2625 2413 2481 
Q 2819 2388 3044 2092 
Q 3269 1797 3269 1353 
Q 3269 753 2831 336 
Q 2394 -81 1725 -81 
Q 1122 -81 723 278 
Q 325 638 269 1209 
z
" transform="scale(0.015625)"/>
       </defs>
       <use xlink:href="#ArialMT-32"/>
       <use xlink:href="#ArialMT-30" x="55.615234"/>
       <use xlink:href="#ArialMT-32" x="111.230469"/>
       <use xlink:href="#ArialMT-33" x="166.845703"/>
       <use xlink:href="#ArialMT-2d" x="222.460938"/>
       <use xlink:href="#ArialMT-30" x="255.761719"/>
       <use xlink:href="#ArialMT-31" x="311.376953"/>
      </g>
     </g>
    </g>
    <g id="xtick_7">
     <g id="line2d_7">
      <path d="M 1316.743225 384.48 
L 1316.743225 51.84 
" clip-path="url(#p728e509668)" style="fill: none; stroke: #ffffff; stroke-width: 0.8; stroke-linecap: round"/>
     </g>
     <g id="text_7">
      <!-- 2023-07 -->
      <g style="fill: #262626" transform="translate(1280.047912 405.795625) scale(0.2 -0.2)">
       <use xlink:href="#ArialMT-32"/>
       <use xlink:href="#ArialMT-30" x="55.615234"/>
       <use xlink:href="#ArialMT-32" x="111.230469"/>
       <use xlink:href="#ArialMT-33" x="166.845703"/>
       <use xlink:href="#ArialMT-2d" x="222.460938"/>
       <use xlink:href="#ArialMT-30" x="255.761719"/>
       <use xlink:href="#ArialMT-37" x="311.376953"/>
      </g>
     </g>
    </g>
    <g id="xtick_8">
     <g id="line2d_8">
      <path d="M 1475.242024 384.48 
L 1475.242024 51.84 
" clip-path="url(#p728e509668)" style="fill: none; stroke: #ffffff; stroke-width: 0.8; stroke-linecap: round"/>
     </g>
     <g id="text_8">
      <!-- 2024-01 -->
      <g style="fill: #262626" transform="translate(1438.546712 405.795625) scale(0.2 -0.2)">
       <defs>
        <path id="ArialMT-34" d="M 2069 0 
L 2069 1097 
L 81 1097 
L 81 1613 
L 2172 4581 
L 2631 4581 
L 2631 1613 
L 3250 1613 
L 3250 1097 
L 2631 1097 
L 2631 0 
L 2069 0 
z
M 2069 1613 
L 2069 3678 
L 634 1613 
L 2069 1613 
z
" transform="scale(0.015625)"/>
       </defs>
       <use xlink:href="#ArialMT-32"/>
       <use xlink:href="#ArialMT-30" x="55.615234"/>
       <use xlink:href="#ArialMT-32" x="111.230469"/>
       <use xlink:href="#ArialMT-34" x="166.845703"/>
       <use xlink:href="#ArialMT-2d" x="222.460938"/>
       <use xlink:href="#ArialMT-30" x="255.761719"/>
       <use xlink:href="#ArialMT-31" x="311.376953"/>
      </g>
     </g>
    </g>
    <g id="xtick_9">
     <g id="line2d_9">
      <path d="M 1632.01801 384.48 
L 1632.01801 51.84 
" clip-path="url(#p728e509668)" style="fill: none; stroke: #ffffff; stroke-width: 0.8; stroke-linecap: round"/>
     </g>
     <g id="text_9">
      <!-- 2024-07 -->
      <g style="fill: #262626" transform="translate(1595.322698 405.795625) scale(0.2 -0.2)">
       <use xlink:href="#ArialMT-32"/>
       <use xlink:href="#ArialMT-30" x="55.615234"/>
       <use xlink:href="#ArialMT-32" x="111.230469"/>
       <use xlink:href="#ArialMT-34" x="166.845703"/>
       <use xlink:href="#ArialMT-2d" x="222.460938"/>
       <use xlink:href="#ArialMT-30" x="255.761719"/>
       <use xlink:href="#ArialMT-37" x="311.376953"/>
      </g>
     </g>
    </g>
   </g>
   <g id="matplotlib.axis_2">
    <g id="ytick_1">
     <g id="line2d_10">
      <path d="M 243 369.471463 
L 1749.6 369.471463 
" clip-path="url(#p728e509668)" style="fill: none; stroke: #ffffff; stroke-width: 0.8; stroke-linecap: round"/>
     </g>
     <g id="text_10">
      <!-- 0 -->
      <g style="fill: #262626" transform="translate(224.878125 376.629276) scale(0.2 -0.2)">
       <use xlink:href="#ArialMT-30"/>
      </g>
     </g>
    </g>
    <g id="ytick_2">
     <g id="line2d_11">
      <path d="M 243 313.739801 
L 1749.6 313.739801 
" clip-path="url(#p728e509668)" style="fill: none; stroke: #ffffff; stroke-width: 0.8; stroke-linecap: round"/>
     </g>
     <g id="text_11">
      <!-- 500 -->
      <g style="fill: #262626" transform="translate(202.634375 320.897613) scale(0.2 -0.2)">
       <defs>
        <path id="ArialMT-35" d="M 266 1200 
L 856 1250 
Q 922 819 1161 601 
Q 1400 384 1738 384 
Q 2144 384 2425 690 
Q 2706 997 2706 1503 
Q 2706 1984 2436 2262 
Q 2166 2541 1728 2541 
Q 1456 2541 1237 2417 
Q 1019 2294 894 2097 
L 366 2166 
L 809 4519 
L 3088 4519 
L 3088 3981 
L 1259 3981 
L 1013 2750 
Q 1425 3038 1878 3038 
Q 2478 3038 2890 2622 
Q 3303 2206 3303 1553 
Q 3303 931 2941 478 
Q 2500 -78 1738 -78 
Q 1113 -78 717 272 
Q 322 622 266 1200 
z
" transform="scale(0.015625)"/>
       </defs>
       <use xlink:href="#ArialMT-35"/>
       <use xlink:href="#ArialMT-30" x="55.615234"/>
       <use xlink:href="#ArialMT-30" x="111.230469"/>
      </g>
     </g>
    </g>
    <g id="ytick_3">
     <g id="line2d_12">
      <path d="M 243 258.008139 
L 1749.6 258.008139 
" clip-path="url(#p728e509668)" style="fill: none; stroke: #ffffff; stroke-width: 0.8; stroke-linecap: round"/>
     </g>
     <g id="text_12">
      <!-- 1000 -->
      <g style="fill: #262626" transform="translate(191.5125 265.165951) scale(0.2 -0.2)">
       <use xlink:href="#ArialMT-31"/>
       <use xlink:href="#ArialMT-30" x="55.615234"/>
       <use xlink:href="#ArialMT-30" x="111.230469"/>
       <use xlink:href="#ArialMT-30" x="166.845703"/>
      </g>
     </g>
    </g>
    <g id="ytick_4">
     <g id="line2d_13">
      <path d="M 243 202.276476 
L 1749.6 202.276476 
" clip-path="url(#p728e509668)" style="fill: none; stroke: #ffffff; stroke-width: 0.8; stroke-linecap: round"/>
     </g>
     <g id="text_13">
      <!-- 1500 -->
      <g style="fill: #262626" transform="translate(191.5125 209.434289) scale(0.2 -0.2)">
       <use xlink:href="#ArialMT-31"/>
       <use xlink:href="#ArialMT-35" x="55.615234"/>
       <use xlink:href="#ArialMT-30" x="111.230469"/>
       <use xlink:href="#ArialMT-30" x="166.845703"/>
      </g>
     </g>
    </g>
    <g id="ytick_5">
     <g id="line2d_14">
      <path d="M 243 146.544814 
L 1749.6 146.544814 
" clip-path="url(#p728e509668)" style="fill: none; stroke: #ffffff; stroke-width: 0.8; stroke-linecap: round"/>
     </g>
     <g id="text_14">
      <!-- 2000 -->
      <g style="fill: #262626" transform="translate(191.5125 153.702626) scale(0.2 -0.2)">
       <use xlink:href="#ArialMT-32"/>
       <use xlink:href="#ArialMT-30" x="55.615234"/>
       <use xlink:href="#ArialMT-30" x="111.230469"/>
       <use xlink:href="#ArialMT-30" x="166.845703"/>
      </g>
     </g>
    </g>
    <g id="ytick_6">
     <g id="line2d_15">
      <path d="M 243 90.813151 
L 1749.6 90.813151 
" clip-path="url(#p728e509668)" style="fill: none; stroke: #ffffff; stroke-width: 0.8; stroke-linecap: round"/>
     </g>
     <g id="text_15">
      <!-- 2500 -->
      <g style="fill: #262626" transform="translate(191.5125 97.970964) scale(0.2 -0.2)">
       <use xlink:href="#ArialMT-32"/>
       <use xlink:href="#ArialMT-35" x="55.615234"/>
       <use xlink:href="#ArialMT-30" x="111.230469"/>
       <use xlink:href="#ArialMT-30" x="166.845703"/>
      </g>
     </g>
    </g>
   </g>
   <g id="line2d_16">
    <path d="M 311.481818 161.035046 
L 312.343225 66.96 
L 313.204631 235.26962 
L 314.066038 134.506775 
L 314.927444 304.488345 
L 315.788851 232.594501 
L 316.650257 317.083701 
L 317.511664 285.20519 
L 318.37307 291.112746 
L 319.234477 351.525868 
L 320.095883 291.335673 
L 321.818696 343.389045 
L 322.680103 366.907807 
L 323.541509 312.402241 
L 324.402916 367.576587 
L 325.264322 277.84861 
L 326.125729 312.848094 
L 326.987136 220.556461 
L 327.848542 343.611972 
L 328.709949 339.933682 
L 329.571355 220.333535 
L 330.432762 349.853918 
L 331.294168 363.67537 
L 332.155575 343.611972 
L 333.016981 297.131766 
L 333.878388 363.34098 
L 334.739794 365.68171 
L 335.601201 364.67854 
L 336.462607 366.0161 
L 337.324014 366.796344 
L 338.18542 369.248537 
L 339.046827 369.248537 
L 339.908233 357.656351 
L 340.76964 364.121224 
L 341.631046 368.69122 
L 342.492453 352.529038 
L 343.353859 345.506849 
L 344.215266 335.698076 
L 345.076672 361.557567 
L 345.938079 365.458784 
L 347.660892 365.458784 
L 348.522298 367.465123 
L 349.383705 368.914147 
L 351.106518 368.69122 
L 351.967925 355.872938 
L 352.829331 364.232687 
L 353.690738 369.248537 
L 354.552144 356.764644 
L 355.413551 336.143929 
L 357.136364 357.767814 
L 357.99777 365.570247 
L 358.859177 368.245367 
L 359.720583 358.548058 
L 361.443396 356.876108 
L 362.304803 358.659521 
L 363.166209 359.439764 
L 364.027616 357.099034 
L 364.889022 364.232687 
L 365.750429 363.00659 
L 366.611835 329.233203 
L 367.473242 313.739801 
L 368.334648 333.580273 
L 369.196055 328.675886 
L 370.057461 357.990741 
L 370.918868 359.774154 
L 371.780274 367.465123 
L 372.641681 368.802683 
L 374.364494 355.204158 
L 375.225901 364.34415 
L 376.087307 368.69122 
L 376.948714 368.02244 
L 377.81012 364.232687 
L 378.671527 362.895127 
L 379.532933 356.764644 
L 380.39434 368.468293 
L 384.701372 368.02244 
L 385.562779 363.118054 
L 386.424185 368.914147 
L 389.008405 367.68805 
L 389.869811 364.121224 
L 390.731218 366.461954 
L 391.592624 336.143929 
L 392.454031 368.35683 
L 393.315437 368.245367 
L 395.03825 366.796344 
L 395.899657 369.137073 
L 396.761063 368.133903 
L 398.483877 364.00976 
L 399.345283 364.901467 
L 401.068096 362.783664 
L 401.929503 369.137073 
L 402.790909 362.783664 
L 403.652316 369.36 
L 404.513722 361.446104 
L 405.375129 365.235857 
L 406.236535 364.790004 
L 408.820755 360.888787 
L 409.682161 354.089525 
L 410.543568 367.465123 
L 412.266381 369.137073 
L 413.127787 352.417575 
L 413.989194 366.239027 
L 415.712007 367.799513 
L 416.573413 368.802683 
L 418.296226 364.232687 
L 420.880446 369.36 
L 422.603259 362.449274 
L 423.464666 327.226863 
L 424.326072 364.67854 
L 425.187479 367.799513 
L 426.048885 367.910977 
L 426.910292 367.242197 
L 427.771698 365.235857 
L 431.217324 368.914147 
L 432.078731 368.914147 
L 433.801544 361.223177 
L 434.66295 363.786834 
L 436.385763 363.452444 
L 438.108576 369.02561 
L 438.969983 369.248537 
L 439.831389 359.328301 
L 440.692796 367.68805 
L 442.415609 364.567077 
L 445.861235 367.01927 
L 446.722642 364.790004 
L 447.584048 366.68488 
L 448.445455 369.36 
L 452.752487 362.226347 
L 463.089365 369.137073 
L 471.703431 366.573417 
L 472.564837 368.245367 
L 473.426244 369.137073 
L 475.149057 368.802683 
L 476.87187 369.137073 
L 477.733276 361.334641 
L 478.594683 367.465123 
L 479.456089 367.68805 
L 480.317496 367.35366 
L 481.178902 365.904637 
L 482.040309 369.248537 
L 483.763122 369.36 
L 484.624528 363.118054 
L 486.347341 365.904637 
L 488.070154 363.898297 
L 488.931561 367.799513 
L 493.238593 366.0161 
L 494.1 357.656351 
L 495.822813 369.137073 
L 497.545626 361.557567 
L 498.407033 369.02561 
L 499.268439 368.914147 
L 500.129846 361.780494 
L 501.852659 367.68805 
L 504.436878 367.576587 
L 505.298285 368.245367 
L 506.159691 369.36 
L 507.021098 337.370026 
L 507.882504 366.239027 
L 508.743911 368.35683 
L 510.466724 365.793174 
L 511.32813 365.68171 
L 514.773756 369.137073 
L 515.635163 369.248537 
L 520.803602 367.465123 
L 527.694854 366.907807 
L 528.556261 338.261732 
L 529.417667 364.567077 
L 530.279074 361.334641 
L 532.001887 369.248537 
L 532.863293 366.127564 
L 538.031732 369.02561 
L 538.893139 368.579757 
L 539.754545 359.105374 
L 540.615952 367.130734 
L 544.061578 321.876624 
L 544.922985 365.570247 
L 545.784391 358.436594 
L 549.230017 367.576587 
L 550.091424 367.799513 
L 550.95283 369.248537 
L 552.675643 369.36 
L 553.53705 366.239027 
L 554.398456 365.124394 
L 556.982676 356.318791 
L 557.844082 347.067335 
L 558.705489 367.35366 
L 559.566895 349.408065 
L 560.428302 364.34415 
L 562.151115 366.35049 
L 563.012521 368.02244 
L 563.873928 341.048316 
L 564.735334 367.242197 
L 565.596741 368.35683 
L 567.319554 363.786834 
L 571.626587 369.36 
L 573.3494 369.02561 
L 574.210806 369.248537 
L 575.072213 368.802683 
L 575.933619 347.736115 
L 576.795026 368.245367 
L 577.656432 368.914147 
L 578.517839 341.048316 
L 579.379245 369.36 
L 580.240652 364.34415 
L 581.102058 368.468293 
L 582.824871 355.427084 
L 583.686278 368.802683 
L 588.854717 358.993911 
L 590.57753 366.0161 
L 591.438937 368.69122 
L 592.300343 369.248537 
L 593.16175 368.468293 
L 594.023156 361.780494 
L 594.884563 362.783664 
L 595.745969 367.35366 
L 596.607376 366.907807 
L 597.468782 368.02244 
L 600.053002 367.799513 
L 601.775815 362.783664 
L 602.637221 366.907807 
L 603.498628 354.646841 
L 604.360034 369.248537 
L 606.082847 368.245367 
L 606.944254 367.01927 
L 607.80566 366.796344 
L 608.667067 364.232687 
L 609.528473 363.118054 
L 610.38988 342.385875 
L 611.251286 365.68171 
L 612.112693 369.137073 
L 612.974099 333.134419 
L 613.835506 365.458784 
L 614.696913 352.974891 
L 615.558319 356.541718 
L 616.419726 342.162949 
L 617.281132 367.799513 
L 618.142539 365.124394 
L 619.003945 368.802683 
L 620.726758 365.124394 
L 629.340823 367.799513 
L 630.20223 369.248537 
L 631.063636 365.458784 
L 631.925043 364.34415 
L 632.786449 369.36 
L 633.647856 365.124394 
L 634.509262 364.790004 
L 635.370669 369.02561 
L 636.232075 367.130734 
L 637.093482 361.334641 
L 637.954889 368.69122 
L 638.816295 368.69122 
L 639.677702 364.00976 
L 640.539108 330.905153 
L 641.400515 341.382705 
L 642.261921 368.133903 
L 644.846141 365.793174 
L 645.707547 360.888787 
L 646.568954 356.987571 
L 648.291767 367.465123 
L 649.153173 367.910977 
L 650.01458 340.825389 
L 650.875986 363.563907 
L 651.737393 367.01927 
L 652.598799 369.02561 
L 653.460206 362.337811 
L 654.321612 369.36 
L 655.183019 367.68805 
L 656.044425 367.35366 
L 656.905832 359.216837 
L 657.767238 369.248537 
L 658.628645 368.468293 
L 659.490051 369.02561 
L 661.212864 369.137073 
L 662.074271 352.974891 
L 663.797084 367.01927 
L 664.658491 364.455614 
L 665.519897 368.35683 
L 666.381304 368.245367 
L 668.104117 368.69122 
L 673.272556 363.786834 
L 674.133962 366.239027 
L 674.995369 369.248537 
L 676.718182 349.853918 
L 677.579588 364.67854 
L 678.440995 365.904637 
L 679.302401 367.799513 
L 680.163808 361.557567 
L 681.025214 362.449274 
L 681.886621 363.118054 
L 682.748027 367.465123 
L 683.609434 369.137073 
L 684.47084 369.36 
L 685.332247 369.36 
L 686.193654 368.35683 
L 687.05506 336.143929 
L 687.916467 329.010276 
L 688.777873 360.442934 
L 689.63928 362.895127 
L 690.500686 369.248537 
L 691.362093 367.01927 
L 692.223499 365.904637 
L 693.084906 352.529038 
L 693.946312 365.34732 
L 694.807719 369.137073 
L 696.530532 364.232687 
L 697.391938 362.449274 
L 698.253345 357.433424 
L 699.114751 368.468293 
L 699.976158 369.137073 
L 700.837564 368.69122 
L 701.698971 367.465123 
L 702.560377 358.659521 
L 703.421784 368.35683 
L 704.28319 365.01293 
L 705.144597 369.36 
L 707.728816 368.579757 
L 708.590223 369.137073 
L 710.313036 365.34732 
L 712.035849 368.914147 
L 712.897256 369.36 
L 713.758662 368.02244 
L 715.481475 369.02561 
L 716.342882 368.802683 
L 718.065695 366.907807 
L 718.927101 369.36 
L 719.788508 369.36 
L 720.649914 367.799513 
L 721.511321 367.35366 
L 730.125386 369.36 
L 730.986792 369.248537 
L 731.848199 369.36 
L 737.016638 367.576587 
L 738.739451 368.133903 
L 739.600858 367.799513 
L 740.462264 366.907807 
L 741.323671 369.137073 
L 742.185077 369.36 
L 743.046484 368.69122 
L 744.769297 369.02561 
L 746.49211 368.69122 
L 751.660549 368.802683 
L 761.997427 368.245367 
L 762.858834 369.248537 
L 763.72024 368.133903 
L 773.195712 368.69122 
L 774.918525 369.248537 
L 780.94837 369.248537 
L 784.393997 369.36 
L 791.285249 368.914147 
L 804.206346 368.914147 
L 805.92916 368.802683 
L 813.681818 368.802683 
L 830.909949 365.235857 
L 831.771355 365.458784 
L 832.632762 358.325131 
L 834.355575 364.67854 
L 835.216981 368.468293 
L 836.078388 369.36 
L 837.801201 368.245367 
L 838.662607 366.68488 
L 845.553859 367.130734 
L 846.415266 369.36 
L 850.722298 364.00976 
L 851.583705 368.468293 
L 855.029331 367.130734 
L 855.890738 368.69122 
L 872.257461 367.35366 
L 873.118868 368.579757 
L 873.980274 363.00659 
L 878.287307 369.137073 
L 884.317153 360.554397 
L 886.039966 351.302941 
L 887.762779 369.36 
L 889.485592 366.68488 
L 890.346998 368.802683 
L 891.208405 350.857088 
L 892.069811 368.133903 
L 892.931218 363.898297 
L 893.792624 369.02561 
L 902.40669 366.573417 
L 904.129503 366.68488 
L 904.990909 368.245367 
L 905.852316 369.36 
L 908.436535 354.200988 
L 909.297942 364.00976 
L 910.159348 361.223177 
L 911.020755 366.461954 
L 911.882161 369.248537 
L 917.912007 368.35683 
L 933.417324 367.910977 
L 938.585763 369.02561 
L 947.199828 367.242197 
L 948.922642 369.248537 
L 950.645455 365.235857 
L 951.506861 369.248537 
L 952.368268 368.35683 
L 953.229674 364.567077 
L 958.398113 368.802683 
L 959.25952 368.69122 
L 960.982333 366.35049 
L 961.843739 369.02561 
L 962.705146 368.245367 
L 963.566552 355.204158 
L 964.427959 368.35683 
L 965.289365 362.114884 
L 967.012178 369.248537 
L 970.457804 367.799513 
L 973.042024 369.137073 
L 975.626244 369.36 
L 978.210463 361.557567 
L 979.07187 368.02244 
L 980.794683 360.220007 
L 981.656089 358.770984 
L 983.378902 366.796344 
L 986.824528 369.36 
L 987.685935 359.662691 
L 988.547341 368.914147 
L 991.131561 368.914147 
L 991.992967 368.133903 
L 993.71578 369.02561 
L 995.438593 367.910977 
L 1009.221098 366.35049 
L 1010.082504 369.248537 
L 1019.557976 369.36 
L 1036.786106 365.904637 
L 1038.508919 369.36 
L 1053.15283 365.124394 
L 1077.272213 369.137073 
L 1078.133619 365.68171 
L 1078.995026 368.914147 
L 1085.024871 369.137073 
L 1085.886278 369.36 
L 1086.747684 369.36 
L 1094.500343 369.02561 
L 1097.084563 367.910977 
L 1097.945969 368.133903 
L 1107.421441 368.802683 
L 1108.282847 369.36 
L 1110.00566 369.36 
L 1116.035506 368.914147 
L 1120.342539 367.01927 
L 1128.095197 367.242197 
L 1128.956604 369.36 
L 1138.432075 366.907807 
L 1154.798799 365.570247 
L 1155.660206 368.579757 
L 1159.967238 369.36 
L 1173.749743 369.248537 
L 1182.363808 369.02561 
L 1191.83928 367.130734 
L 1192.700686 365.793174 
L 1193.562093 355.315621 
L 1194.423499 369.02561 
L 1196.146312 369.36 
L 1197.007719 369.248537 
L 1197.869125 368.914147 
L 1203.898971 365.235857 
L 1214.235849 369.36 
L 1215.958662 368.69122 
L 1216.820069 369.36 
L 1223.711321 362.560737 
L 1224.572727 369.137073 
L 1225.434134 369.137073 
L 1236.632419 321.207844 
L 1237.493825 365.124394 
L 1238.355232 368.914147 
L 1240.078045 368.802683 
L 1244.385077 365.458784 
L 1245.246484 351.080015 
L 1246.10789 369.02561 
L 1251.276329 369.36 
L 1252.137736 369.248537 
L 1252.999142 366.68488 
L 1253.860549 368.133903 
L 1255.583362 365.793174 
L 1258.167581 355.538548 
L 1259.028988 356.876108 
L 1259.890395 369.02561 
L 1260.751801 366.127564 
L 1266.781647 367.910977 
L 1269.365866 368.245367 
L 1271.088679 367.799513 
L 1271.950086 359.439764 
L 1275.395712 358.102204 
L 1276.257118 368.02244 
L 1279.702744 369.248537 
L 1280.564151 366.0161 
L 1281.425557 368.914147 
L 1282.286964 369.248537 
L 1283.14837 369.36 
L 1284.009777 359.328301 
L 1284.871184 369.02561 
L 1286.593997 369.137073 
L 1287.455403 359.105374 
L 1289.178216 367.35366 
L 1290.901029 356.318791 
L 1291.762436 368.579757 
L 1293.485249 363.229517 
L 1294.346655 369.248537 
L 1296.069468 363.898297 
L 1297.792281 368.468293 
L 1298.653688 368.02244 
L 1299.515094 368.133903 
L 1301.237907 368.02244 
L 1308.990566 369.36 
L 1311.574786 368.35683 
L 1312.436192 369.36 
L 1314.159005 366.907807 
L 1315.020412 369.137073 
L 1326.218696 369.248537 
L 1327.941509 369.137073 
L 1331.387136 366.796344 
L 1332.248542 369.248537 
L 1335.694168 369.248537 
L 1336.555575 364.232687 
L 1348.615266 366.573417 
L 1349.476672 368.468293 
L 1370.150429 369.248537 
L 1373.596055 367.465123 
L 1385.655746 368.245367 
L 1394.269811 368.468293 
L 1398.576844 368.02244 
L 1399.43825 369.248537 
L 1402.02247 369.02561 
L 1412.359348 367.799513 
L 1453.706861 363.786834 
L 1454.568268 369.248537 
L 1456.291081 369.36 
L 1457.152487 369.137073 
L 1463.182333 362.337811 
L 1464.043739 369.02561 
L 1467.489365 368.914147 
L 1468.350772 369.137073 
L 1470.934991 367.576587 
L 1475.242024 369.137073 
L 1476.103431 368.914147 
L 1479.549057 366.907807 
L 1481.27187 366.239027 
L 1482.133276 369.137073 
L 1506.252659 368.914147 
L 1507.114065 362.783664 
L 1527.787822 368.802683 
L 1531.233448 368.245367 
L 1541.570326 369.36 
L 1547.600172 363.67537 
L 1552.768611 363.118054 
L 1553.630017 368.69122 
L 1557.075643 367.465123 
L 1558.798456 368.69122 
L 1561.382676 365.458784 
L 1568.273928 364.790004 
L 1569.135334 368.914147 
L 1569.996741 368.133903 
L 1574.303774 368.35683 
L 1575.16518 357.210498 
L 1578.610806 365.793174 
L 1579.472213 369.137073 
L 1585.502058 369.137073 
L 1593.254717 368.245367 
L 1597.56175 367.465123 
L 1601.007376 368.579757 
L 1607.898628 368.914147 
L 1609.621441 369.36 
L 1610.482847 369.02561 
L 1619.096913 367.35366 
L 1627.710978 369.137073 
L 1628.572384 369.137073 
L 1633.740823 368.468293 
L 1634.60223 364.567077 
L 1639.770669 365.124394 
L 1641.493482 365.570247 
L 1645.800515 369.36 
L 1648.384734 369.36 
L 1650.107547 340.268072 
L 1650.968954 365.68171 
L 1652.691767 368.802683 
L 1653.553173 368.35683 
L 1654.41458 365.793174 
L 1658.721612 368.802683 
L 1662.167238 362.672201 
L 1663.890051 369.248537 
L 1664.751458 368.579757 
L 1665.612864 369.02561 
L 1667.335678 369.248537 
L 1669.919897 369.248537 
L 1670.781304 369.02561 
L 1673.365523 368.69122 
L 1681.118182 369.36 
L 1681.118182 369.36 
" clip-path="url(#p728e509668)" style="fill: none; stroke: #1f77b4; stroke-width: 1.5; stroke-linecap: round"/>
   </g>
   <g id="patch_3">
    <path d="M 243 384.48 
L 243 51.84 
" style="fill: none; stroke: #ffffff; stroke-width: 0.8; stroke-linejoin: miter; stroke-linecap: square"/>
   </g>
   <g id="patch_4">
    <path d="M 1749.6 384.48 
L 1749.6 51.84 
" style="fill: none; stroke: #ffffff; stroke-width: 0.8; stroke-linejoin: miter; stroke-linecap: square"/>
   </g>
   <g id="patch_5">
    <path d="M 243 384.48 
L 1749.6 384.48 
" style="fill: none; stroke: #ffffff; stroke-width: 0.8; stroke-linejoin: miter; stroke-linecap: square"/>
   </g>
   <g id="patch_6">
    <path d="M 243 51.84 
L 1749.6 51.84 
" style="fill: none; stroke: #ffffff; stroke-width: 0.8; stroke-linejoin: miter; stroke-linecap: square"/>
   </g>
   <g id="text_16">
    <!-- Messages sent per day over a time period -->
    <g style="fill: #262626" transform="translate(772.869375 45.84) scale(0.24 -0.24)">
     <defs>
      <path id="ArialMT-4d" d="M 475 0 
L 475 4581 
L 1388 4581 
L 2472 1338 
Q 2622 884 2691 659 
Q 2769 909 2934 1394 
L 4031 4581 
L 4847 4581 
L 4847 0 
L 4263 0 
L 4263 3834 
L 2931 0 
L 2384 0 
L 1059 3900 
L 1059 0 
L 475 0 
z
" transform="scale(0.015625)"/>
      <path id="ArialMT-65" d="M 2694 1069 
L 3275 997 
Q 3138 488 2766 206 
Q 2394 -75 1816 -75 
Q 1088 -75 661 373 
Q 234 822 234 1631 
Q 234 2469 665 2931 
Q 1097 3394 1784 3394 
Q 2450 3394 2872 2941 
Q 3294 2488 3294 1666 
Q 3294 1616 3291 1516 
L 816 1516 
Q 847 969 1125 678 
Q 1403 388 1819 388 
Q 2128 388 2347 550 
Q 2566 713 2694 1069 
z
M 847 1978 
L 2700 1978 
Q 2663 2397 2488 2606 
Q 2219 2931 1791 2931 
Q 1403 2931 1139 2672 
Q 875 2413 847 1978 
z
" transform="scale(0.015625)"/>
      <path id="ArialMT-73" d="M 197 991 
L 753 1078 
Q 800 744 1014 566 
Q 1228 388 1613 388 
Q 2000 388 2187 545 
Q 2375 703 2375 916 
Q 2375 1106 2209 1216 
Q 2094 1291 1634 1406 
Q 1016 1563 777 1677 
Q 538 1791 414 1992 
Q 291 2194 291 2438 
Q 291 2659 392 2848 
Q 494 3038 669 3163 
Q 800 3259 1026 3326 
Q 1253 3394 1513 3394 
Q 1903 3394 2198 3281 
Q 2494 3169 2634 2976 
Q 2775 2784 2828 2463 
L 2278 2388 
Q 2241 2644 2061 2787 
Q 1881 2931 1553 2931 
Q 1166 2931 1000 2803 
Q 834 2675 834 2503 
Q 834 2394 903 2306 
Q 972 2216 1119 2156 
Q 1203 2125 1616 2013 
Q 2213 1853 2448 1751 
Q 2684 1650 2818 1456 
Q 2953 1263 2953 975 
Q 2953 694 2789 445 
Q 2625 197 2315 61 
Q 2006 -75 1616 -75 
Q 969 -75 630 194 
Q 291 463 197 991 
z
" transform="scale(0.015625)"/>
      <path id="ArialMT-61" d="M 2588 409 
Q 2275 144 1986 34 
Q 1697 -75 1366 -75 
Q 819 -75 525 192 
Q 231 459 231 875 
Q 231 1119 342 1320 
Q 453 1522 633 1644 
Q 813 1766 1038 1828 
Q 1203 1872 1538 1913 
Q 2219 1994 2541 2106 
Q 2544 2222 2544 2253 
Q 2544 2597 2384 2738 
Q 2169 2928 1744 2928 
Q 1347 2928 1158 2789 
Q 969 2650 878 2297 
L 328 2372 
Q 403 2725 575 2942 
Q 747 3159 1072 3276 
Q 1397 3394 1825 3394 
Q 2250 3394 2515 3294 
Q 2781 3194 2906 3042 
Q 3031 2891 3081 2659 
Q 3109 2516 3109 2141 
L 3109 1391 
Q 3109 606 3145 398 
Q 3181 191 3288 0 
L 2700 0 
Q 2613 175 2588 409 
z
M 2541 1666 
Q 2234 1541 1622 1453 
Q 1275 1403 1131 1340 
Q 988 1278 909 1158 
Q 831 1038 831 891 
Q 831 666 1001 516 
Q 1172 366 1500 366 
Q 1825 366 2078 508 
Q 2331 650 2450 897 
Q 2541 1088 2541 1459 
L 2541 1666 
z
" transform="scale(0.015625)"/>
      <path id="ArialMT-67" d="M 319 -275 
L 866 -356 
Q 900 -609 1056 -725 
Q 1266 -881 1628 -881 
Q 2019 -881 2231 -725 
Q 2444 -569 2519 -288 
Q 2563 -116 2559 434 
Q 2191 0 1641 0 
Q 956 0 581 494 
Q 206 988 206 1678 
Q 206 2153 378 2554 
Q 550 2956 876 3175 
Q 1203 3394 1644 3394 
Q 2231 3394 2613 2919 
L 2613 3319 
L 3131 3319 
L 3131 450 
Q 3131 -325 2973 -648 
Q 2816 -972 2473 -1159 
Q 2131 -1347 1631 -1347 
Q 1038 -1347 672 -1080 
Q 306 -813 319 -275 
z
M 784 1719 
Q 784 1066 1043 766 
Q 1303 466 1694 466 
Q 2081 466 2343 764 
Q 2606 1063 2606 1700 
Q 2606 2309 2336 2618 
Q 2066 2928 1684 2928 
Q 1309 2928 1046 2623 
Q 784 2319 784 1719 
z
" transform="scale(0.015625)"/>
      <path id="ArialMT-20" transform="scale(0.015625)"/>
      <path id="ArialMT-6e" d="M 422 0 
L 422 3319 
L 928 3319 
L 928 2847 
Q 1294 3394 1984 3394 
Q 2284 3394 2536 3286 
Q 2788 3178 2913 3003 
Q 3038 2828 3088 2588 
Q 3119 2431 3119 2041 
L 3119 0 
L 2556 0 
L 2556 2019 
Q 2556 2363 2490 2533 
Q 2425 2703 2258 2804 
Q 2091 2906 1866 2906 
Q 1506 2906 1245 2678 
Q 984 2450 984 1813 
L 984 0 
L 422 0 
z
" transform="scale(0.015625)"/>
      <path id="ArialMT-74" d="M 1650 503 
L 1731 6 
Q 1494 -44 1306 -44 
Q 1000 -44 831 53 
Q 663 150 594 308 
Q 525 466 525 972 
L 525 2881 
L 113 2881 
L 113 3319 
L 525 3319 
L 525 4141 
L 1084 4478 
L 1084 3319 
L 1650 3319 
L 1650 2881 
L 1084 2881 
L 1084 941 
Q 1084 700 1114 631 
Q 1144 563 1211 522 
Q 1278 481 1403 481 
Q 1497 481 1650 503 
z
" transform="scale(0.015625)"/>
      <path id="ArialMT-70" d="M 422 -1272 
L 422 3319 
L 934 3319 
L 934 2888 
Q 1116 3141 1344 3267 
Q 1572 3394 1897 3394 
Q 2322 3394 2647 3175 
Q 2972 2956 3137 2557 
Q 3303 2159 3303 1684 
Q 3303 1175 3120 767 
Q 2938 359 2589 142 
Q 2241 -75 1856 -75 
Q 1575 -75 1351 44 
Q 1128 163 984 344 
L 984 -1272 
L 422 -1272 
z
M 931 1641 
Q 931 1000 1190 694 
Q 1450 388 1819 388 
Q 2194 388 2461 705 
Q 2728 1022 2728 1688 
Q 2728 2322 2467 2637 
Q 2206 2953 1844 2953 
Q 1484 2953 1207 2617 
Q 931 2281 931 1641 
z
" transform="scale(0.015625)"/>
      <path id="ArialMT-72" d="M 416 0 
L 416 3319 
L 922 3319 
L 922 2816 
Q 1116 3169 1280 3281 
Q 1444 3394 1641 3394 
Q 1925 3394 2219 3213 
L 2025 2691 
Q 1819 2813 1613 2813 
Q 1428 2813 1281 2702 
Q 1134 2591 1072 2394 
Q 978 2094 978 1738 
L 978 0 
L 416 0 
z
" transform="scale(0.015625)"/>
      <path id="ArialMT-64" d="M 2575 0 
L 2575 419 
Q 2259 -75 1647 -75 
Q 1250 -75 917 144 
Q 584 363 401 755 
Q 219 1147 219 1656 
Q 219 2153 384 2558 
Q 550 2963 881 3178 
Q 1213 3394 1622 3394 
Q 1922 3394 2156 3267 
Q 2391 3141 2538 2938 
L 2538 4581 
L 3097 4581 
L 3097 0 
L 2575 0 
z
M 797 1656 
Q 797 1019 1065 703 
Q 1334 388 1700 388 
Q 2069 388 2326 689 
Q 2584 991 2584 1609 
Q 2584 2291 2321 2609 
Q 2059 2928 1675 2928 
Q 1300 2928 1048 2622 
Q 797 2316 797 1656 
z
" transform="scale(0.015625)"/>
      <path id="ArialMT-79" d="M 397 -1278 
L 334 -750 
Q 519 -800 656 -800 
Q 844 -800 956 -737 
Q 1069 -675 1141 -563 
Q 1194 -478 1313 -144 
Q 1328 -97 1363 -6 
L 103 3319 
L 709 3319 
L 1400 1397 
Q 1534 1031 1641 628 
Q 1738 1016 1872 1384 
L 2581 3319 
L 3144 3319 
L 1881 -56 
Q 1678 -603 1566 -809 
Q 1416 -1088 1222 -1217 
Q 1028 -1347 759 -1347 
Q 597 -1347 397 -1278 
z
" transform="scale(0.015625)"/>
      <path id="ArialMT-6f" d="M 213 1659 
Q 213 2581 725 3025 
Q 1153 3394 1769 3394 
Q 2453 3394 2887 2945 
Q 3322 2497 3322 1706 
Q 3322 1066 3130 698 
Q 2938 331 2570 128 
Q 2203 -75 1769 -75 
Q 1072 -75 642 372 
Q 213 819 213 1659 
z
M 791 1659 
Q 791 1022 1069 705 
Q 1347 388 1769 388 
Q 2188 388 2466 706 
Q 2744 1025 2744 1678 
Q 2744 2294 2464 2611 
Q 2184 2928 1769 2928 
Q 1347 2928 1069 2612 
Q 791 2297 791 1659 
z
" transform="scale(0.015625)"/>
      <path id="ArialMT-76" d="M 1344 0 
L 81 3319 
L 675 3319 
L 1388 1331 
Q 1503 1009 1600 663 
Q 1675 925 1809 1294 
L 2547 3319 
L 3125 3319 
L 1869 0 
L 1344 0 
z
" transform="scale(0.015625)"/>
      <path id="ArialMT-69" d="M 425 3934 
L 425 4581 
L 988 4581 
L 988 3934 
L 425 3934 
z
M 425 0 
L 425 3319 
L 988 3319 
L 988 0 
L 425 0 
z
" transform="scale(0.015625)"/>
      <path id="ArialMT-6d" d="M 422 0 
L 422 3319 
L 925 3319 
L 925 2853 
Q 1081 3097 1340 3245 
Q 1600 3394 1931 3394 
Q 2300 3394 2536 3241 
Q 2772 3088 2869 2813 
Q 3263 3394 3894 3394 
Q 4388 3394 4653 3120 
Q 4919 2847 4919 2278 
L 4919 0 
L 4359 0 
L 4359 2091 
Q 4359 2428 4304 2576 
Q 4250 2725 4106 2815 
Q 3963 2906 3769 2906 
Q 3419 2906 3187 2673 
Q 2956 2441 2956 1928 
L 2956 0 
L 2394 0 
L 2394 2156 
Q 2394 2531 2256 2718 
Q 2119 2906 1806 2906 
Q 1569 2906 1367 2781 
Q 1166 2656 1075 2415 
Q 984 2175 984 1722 
L 984 0 
L 422 0 
z
" transform="scale(0.015625)"/>
     </defs>
     <use xlink:href="#ArialMT-4d"/>
     <use xlink:href="#ArialMT-65" x="83.300781"/>
     <use xlink:href="#ArialMT-73" x="138.916016"/>
     <use xlink:href="#ArialMT-73" x="188.916016"/>
     <use xlink:href="#ArialMT-61" x="238.916016"/>
     <use xlink:href="#ArialMT-67" x="294.53125"/>
     <use xlink:href="#ArialMT-65" x="350.146484"/>
     <use xlink:href="#ArialMT-73" x="405.761719"/>
     <use xlink:href="#ArialMT-20" x="455.761719"/>
     <use xlink:href="#ArialMT-73" x="483.544922"/>
     <use xlink:href="#ArialMT-65" x="533.544922"/>
     <use xlink:href="#ArialMT-6e" x="589.160156"/>
     <use xlink:href="#ArialMT-74" x="644.775391"/>
     <use xlink:href="#ArialMT-20" x="672.558594"/>
     <use xlink:href="#ArialMT-70" x="700.341797"/>
     <use xlink:href="#ArialMT-65" x="755.957031"/>
     <use xlink:href="#ArialMT-72" x="811.572266"/>
     <use xlink:href="#ArialMT-20" x="844.873047"/>
     <use xlink:href="#ArialMT-64" x="872.65625"/>
     <use xlink:href="#ArialMT-61" x="928.271484"/>
     <use xlink:href="#ArialMT-79" x="983.886719"/>
     <use xlink:href="#ArialMT-20" x="1033.886719"/>
     <use xlink:href="#ArialMT-6f" x="1061.669922"/>
     <use xlink:href="#ArialMT-76" x="1117.285156"/>
     <use xlink:href="#ArialMT-65" x="1167.285156"/>
     <use xlink:href="#ArialMT-72" x="1222.900391"/>
     <use xlink:href="#ArialMT-20" x="1256.201172"/>
     <use xlink:href="#ArialMT-61" x="1283.984375"/>
     <use xlink:href="#ArialMT-20" x="1339.599609"/>
     <use xlink:href="#ArialMT-74" x="1367.382812"/>
     <use xlink:href="#ArialMT-69" x="1395.166016"/>
     <use xlink:href="#ArialMT-6d" x="1417.382812"/>
     <use xlink:href="#ArialMT-65" x="1500.683594"/>
     <use xlink:href="#ArialMT-20" x="1556.298828"/>
     <use xlink:href="#ArialMT-70" x="1584.082031"/>
     <use xlink:href="#ArialMT-65" x="1639.697266"/>
     <use xlink:href="#ArialMT-72" x="1695.3125"/>
     <use xlink:href="#ArialMT-69" x="1728.613281"/>
     <use xlink:href="#ArialMT-6f" x="1750.830078"/>
     <use xlink:href="#ArialMT-64" x="1806.445312"/>
    </g>
   </g>
  </g>
 </g>
 <defs>
  <clipPath id="p728e509668">
   <rect x="243" y="51.84" width="1506.6" height="332.64"/>
  </clipPath>
 </defs>
</svg>
